<mxfile host="app.diagrams.net" modified="2022-11-23T16:25:08.058Z" agent="5.0 (Windows)" etag="RNWF-9lzYBBnvL1QJ0Ny" version="20.5.1" type="github">
  <diagram name="Page-1" id="e7e014a7-5840-1c2e-5031-d8a46d1fe8dd">
    <mxGraphModel dx="1422" dy="772" grid="1" gridSize="10" guides="1" tooltips="1" connect="1" arrows="1" fold="1" page="1" pageScale="1" pageWidth="2336" pageHeight="1654" background="none" math="0" shadow="0">
      <root>
        <mxCell id="0" />
        <mxCell id="1" parent="0" />
        <mxCell id="2" value="Pengaju" style="swimlane;whiteSpace=wrap" parent="1" vertex="1">
          <mxGeometry x="140" y="128" width="280" height="1392" as="geometry" />
        </mxCell>
        <mxCell id="9" value="" style="endArrow=open;strokeColor=#FF0000;endFill=1;rounded=0" parent="2" edge="1">
          <mxGeometry relative="1" as="geometry">
            <mxPoint x="115" y="160" as="sourcePoint" />
          </mxGeometry>
        </mxCell>
        <mxCell id="11" value="" style="endArrow=open;strokeColor=#FF0000;endFill=1;rounded=0" parent="2" edge="1">
          <mxGeometry relative="1" as="geometry">
            <mxPoint x="115" y="270" as="sourcePoint" />
          </mxGeometry>
        </mxCell>
        <mxCell id="3kQOBkl0-LQ7jXiS91Ee-43" value="" style="ellipse;html=1;shape=startState;fillColor=#000000;strokeColor=#ff0000;" parent="2" vertex="1">
          <mxGeometry x="125.5" y="42" width="30" height="30" as="geometry" />
        </mxCell>
        <mxCell id="3kQOBkl0-LQ7jXiS91Ee-44" value="" style="edgeStyle=orthogonalEdgeStyle;html=1;verticalAlign=bottom;endArrow=open;endSize=8;strokeColor=#ff0000;rounded=0;" parent="2" source="3kQOBkl0-LQ7jXiS91Ee-43" edge="1">
          <mxGeometry relative="1" as="geometry">
            <mxPoint x="140.5" y="132" as="targetPoint" />
          </mxGeometry>
        </mxCell>
        <mxCell id="3kQOBkl0-LQ7jXiS91Ee-47" value="Mengunduh Formulir" style="shape=parallelogram;html=1;strokeWidth=2;perimeter=parallelogramPerimeter;whiteSpace=wrap;rounded=1;arcSize=12;size=0.23;" parent="2" vertex="1">
          <mxGeometry x="55" y="132" width="170" height="48" as="geometry" />
        </mxCell>
        <mxCell id="3kQOBkl0-LQ7jXiS91Ee-53" value="" style="edgeStyle=orthogonalEdgeStyle;rounded=0;orthogonalLoop=1;jettySize=auto;html=1;" parent="2" source="3kQOBkl0-LQ7jXiS91Ee-50" target="3kQOBkl0-LQ7jXiS91Ee-52" edge="1">
          <mxGeometry relative="1" as="geometry" />
        </mxCell>
        <mxCell id="3kQOBkl0-LQ7jXiS91Ee-50" value="Unggah formulir dan bukti transaksi" style="shape=parallelogram;perimeter=parallelogramPerimeter;whiteSpace=wrap;html=1;fixedSize=1;fillColor=rgb(255, 255, 255);strokeColor=rgb(0, 0, 0);fontColor=rgb(0, 0, 0);strokeWidth=2;rounded=1;arcSize=12;" parent="2" vertex="1">
          <mxGeometry x="70" y="361" width="140" height="49" as="geometry" />
        </mxCell>
        <mxCell id="3kQOBkl0-LQ7jXiS91Ee-55" value="" style="edgeStyle=orthogonalEdgeStyle;rounded=0;orthogonalLoop=1;jettySize=auto;html=1;" parent="2" source="3kQOBkl0-LQ7jXiS91Ee-52" target="3kQOBkl0-LQ7jXiS91Ee-54" edge="1">
          <mxGeometry relative="1" as="geometry" />
        </mxCell>
        <mxCell id="3kQOBkl0-LQ7jXiS91Ee-52" value="Mencetak formulir" style="whiteSpace=wrap;html=1;fillColor=rgb(255, 255, 255);strokeColor=rgb(0, 0, 0);fontColor=rgb(0, 0, 0);strokeWidth=2;rounded=1;arcSize=0;" parent="2" vertex="1">
          <mxGeometry x="80" y="484.5" width="120" height="45.5" as="geometry" />
        </mxCell>
        <mxCell id="3kQOBkl0-LQ7jXiS91Ee-54" value="Menandatangani formulir" style="rounded=1;whiteSpace=wrap;html=1;fillColor=rgb(255, 255, 255);strokeColor=rgb(0, 0, 0);fontColor=rgb(0, 0, 0);strokeWidth=2;arcSize=0;" parent="2" vertex="1">
          <mxGeometry x="80" y="602.75" width="120" height="57.25" as="geometry" />
        </mxCell>
        <mxCell id="3kQOBkl0-LQ7jXiS91Ee-97" style="edgeStyle=orthogonalEdgeStyle;rounded=0;orthogonalLoop=1;jettySize=auto;html=1;exitX=0.5;exitY=1;exitDx=0;exitDy=0;entryX=0.5;entryY=0;entryDx=0;entryDy=0;" parent="2" source="3kQOBkl0-LQ7jXiS91Ee-92" target="3kQOBkl0-LQ7jXiS91Ee-96" edge="1">
          <mxGeometry relative="1" as="geometry" />
        </mxCell>
        <mxCell id="3kQOBkl0-LQ7jXiS91Ee-92" value="Menerima formulir" style="shape=parallelogram;html=1;strokeWidth=2;perimeter=parallelogramPerimeter;whiteSpace=wrap;rounded=1;arcSize=12;size=0.23;" parent="2" vertex="1">
          <mxGeometry x="63.75" y="822" width="153.5" height="60" as="geometry" />
        </mxCell>
        <mxCell id="3kQOBkl0-LQ7jXiS91Ee-91" value="A" style="strokeWidth=2;html=1;shape=mxgraph.flowchart.start_2;whiteSpace=wrap;" parent="2" vertex="1">
          <mxGeometry x="108.75" y="1092" width="63.5" height="63" as="geometry" />
        </mxCell>
        <mxCell id="3kQOBkl0-LQ7jXiS91Ee-98" style="edgeStyle=orthogonalEdgeStyle;rounded=0;orthogonalLoop=1;jettySize=auto;html=1;exitX=0.5;exitY=1;exitDx=0;exitDy=0;entryX=0.5;entryY=0;entryDx=0;entryDy=0;entryPerimeter=0;" parent="2" source="3kQOBkl0-LQ7jXiS91Ee-96" target="3kQOBkl0-LQ7jXiS91Ee-91" edge="1">
          <mxGeometry relative="1" as="geometry" />
        </mxCell>
        <mxCell id="3kQOBkl0-LQ7jXiS91Ee-96" value="Mengajukan persetujuan" style="rounded=1;whiteSpace=wrap;html=1;fillColor=rgb(255, 255, 255);strokeColor=rgb(0, 0, 0);fontColor=rgb(0, 0, 0);strokeWidth=2;arcSize=0;" parent="2" vertex="1">
          <mxGeometry x="80" y="952" width="120" height="57.25" as="geometry" />
        </mxCell>
        <mxCell id="3kQOBkl0-LQ7jXiS91Ee-139" style="edgeStyle=orthogonalEdgeStyle;rounded=0;orthogonalLoop=1;jettySize=auto;html=1;exitX=0.5;exitY=1;exitDx=0;exitDy=0;entryX=0.5;entryY=0;entryDx=0;entryDy=0;" parent="2" source="3kQOBkl0-LQ7jXiS91Ee-137" target="3kQOBkl0-LQ7jXiS91Ee-138" edge="1">
          <mxGeometry relative="1" as="geometry" />
        </mxCell>
        <mxCell id="3kQOBkl0-LQ7jXiS91Ee-137" value="Menerima pembayaran" style="shape=parallelogram;html=1;strokeWidth=2;perimeter=parallelogramPerimeter;whiteSpace=wrap;rounded=1;arcSize=12;size=0.23;" parent="2" vertex="1">
          <mxGeometry x="52.12" y="1202" width="176.75" height="60" as="geometry" />
        </mxCell>
        <mxCell id="3kQOBkl0-LQ7jXiS91Ee-138" value="Selesai" style="ellipse;whiteSpace=wrap;html=1;fillColor=rgb(255, 255, 255);strokeColor=rgb(0, 0, 0);fontColor=rgb(0, 0, 0);rounded=1;strokeWidth=2;arcSize=0;" parent="2" vertex="1">
          <mxGeometry x="80.5" y="1321.995" width="120" height="60" as="geometry" />
        </mxCell>
        <mxCell id="3kQOBkl0-LQ7jXiS91Ee-147" value="B" style="strokeWidth=2;html=1;shape=mxgraph.flowchart.start_2;whiteSpace=wrap;" parent="2" vertex="1">
          <mxGeometry x="6.5" y="191" width="63.5" height="63" as="geometry" />
        </mxCell>
        <mxCell id="3kQOBkl0-LQ7jXiS91Ee-56" value="Mengajukan persetujuan" style="rounded=1;whiteSpace=wrap;html=1;fillColor=rgb(255, 255, 255);strokeColor=rgb(0, 0, 0);fontColor=rgb(0, 0, 0);strokeWidth=2;arcSize=0;" parent="2" vertex="1">
          <mxGeometry x="80.5" y="742" width="120" height="57.25" as="geometry" />
        </mxCell>
        <mxCell id="3kQOBkl0-LQ7jXiS91Ee-57" value="" style="edgeStyle=orthogonalEdgeStyle;rounded=0;orthogonalLoop=1;jettySize=auto;html=1;" parent="2" source="3kQOBkl0-LQ7jXiS91Ee-54" target="3kQOBkl0-LQ7jXiS91Ee-56" edge="1">
          <mxGeometry relative="1" as="geometry" />
        </mxCell>
        <mxCell id="3" value="Approver    " style="swimlane;whiteSpace=wrap" parent="1" vertex="1">
          <mxGeometry x="420" y="128" width="280" height="1392" as="geometry" />
        </mxCell>
        <mxCell id="14" value="" style="edgeStyle=elbowEdgeStyle;elbow=horizontal;verticalAlign=bottom;endArrow=open;endSize=8;strokeColor=#FF0000;endFill=1;rounded=0" parent="3" edge="1">
          <mxGeometry x="40" y="20" as="geometry">
            <mxPoint x="55" y="90" as="targetPoint" />
            <mxPoint x="75" y="70" as="sourcePoint" />
          </mxGeometry>
        </mxCell>
        <mxCell id="17" value="" style="endArrow=open;strokeColor=#FF0000;endFill=1;rounded=0" parent="3" edge="1">
          <mxGeometry relative="1" as="geometry">
            <mxPoint x="75" y="160" as="sourcePoint" />
          </mxGeometry>
        </mxCell>
        <mxCell id="19" value="" style="endArrow=open;strokeColor=#FF0000;endFill=1;rounded=0" parent="3" edge="1">
          <mxGeometry relative="1" as="geometry">
            <mxPoint x="75" y="270" as="sourcePoint" />
          </mxGeometry>
        </mxCell>
        <mxCell id="26" value="" style="edgeStyle=elbowEdgeStyle;elbow=horizontal;verticalAlign=bottom;endArrow=open;endSize=8;strokeColor=#FF0000;endFill=1;rounded=0" parent="3" edge="1">
          <mxGeometry x="130" y="90" as="geometry">
            <mxPoint x="130" y="135" as="targetPoint" />
          </mxGeometry>
        </mxCell>
        <mxCell id="32" value="" style="endArrow=none;strokeColor=#FF0000;endFill=0;rounded=0;dashed=1" parent="3" edge="1">
          <mxGeometry relative="1" as="geometry">
            <mxPoint x="87.12121212121201" y="375" as="sourcePoint" />
          </mxGeometry>
        </mxCell>
        <mxCell id="3kQOBkl0-LQ7jXiS91Ee-70" style="edgeStyle=orthogonalEdgeStyle;rounded=0;orthogonalLoop=1;jettySize=auto;html=1;exitX=0;exitY=0.5;exitDx=0;exitDy=0;entryX=1.026;entryY=0.503;entryDx=0;entryDy=0;entryPerimeter=0;" parent="3" source="3kQOBkl0-LQ7jXiS91Ee-58" target="3kQOBkl0-LQ7jXiS91Ee-64" edge="1">
          <mxGeometry relative="1" as="geometry" />
        </mxCell>
        <mxCell id="3kQOBkl0-LQ7jXiS91Ee-71" value="No" style="edgeLabel;html=1;align=center;verticalAlign=middle;resizable=0;points=[];" parent="3kQOBkl0-LQ7jXiS91Ee-70" vertex="1" connectable="0">
          <mxGeometry x="-0.6379" relative="1" as="geometry">
            <mxPoint as="offset" />
          </mxGeometry>
        </mxCell>
        <mxCell id="3kQOBkl0-LQ7jXiS91Ee-58" value="menyetujui?" style="rhombus;whiteSpace=wrap;html=1;fillColor=rgb(255, 255, 255);strokeColor=rgb(0, 0, 0);fontColor=rgb(0, 0, 0);rounded=1;strokeWidth=2;arcSize=0;" parent="3" vertex="1">
          <mxGeometry x="163" y="62.004999999999995" width="80" height="80" as="geometry" />
        </mxCell>
        <mxCell id="3kQOBkl0-LQ7jXiS91Ee-80" style="edgeStyle=orthogonalEdgeStyle;rounded=0;orthogonalLoop=1;jettySize=auto;html=1;exitX=0.5;exitY=1;exitDx=0;exitDy=0;" parent="3" source="3kQOBkl0-LQ7jXiS91Ee-61" target="3kQOBkl0-LQ7jXiS91Ee-79" edge="1">
          <mxGeometry relative="1" as="geometry" />
        </mxCell>
        <mxCell id="3kQOBkl0-LQ7jXiS91Ee-61" value="Menandatangani formulir" style="whiteSpace=wrap;html=1;fillColor=rgb(255, 255, 255);strokeColor=rgb(0, 0, 0);fontColor=rgb(0, 0, 0);rounded=1;strokeWidth=2;arcSize=0;" parent="3" vertex="1">
          <mxGeometry x="143" y="232.005" width="120" height="60" as="geometry" />
        </mxCell>
        <mxCell id="3kQOBkl0-LQ7jXiS91Ee-62" value="" style="edgeStyle=orthogonalEdgeStyle;rounded=0;orthogonalLoop=1;jettySize=auto;html=1;" parent="3" source="3kQOBkl0-LQ7jXiS91Ee-58" target="3kQOBkl0-LQ7jXiS91Ee-61" edge="1">
          <mxGeometry relative="1" as="geometry" />
        </mxCell>
        <mxCell id="3kQOBkl0-LQ7jXiS91Ee-63" value="Yes" style="edgeLabel;html=1;align=center;verticalAlign=middle;resizable=0;points=[];" parent="3kQOBkl0-LQ7jXiS91Ee-62" vertex="1" connectable="0">
          <mxGeometry x="-0.2393" relative="1" as="geometry">
            <mxPoint as="offset" />
          </mxGeometry>
        </mxCell>
        <mxCell id="3kQOBkl0-LQ7jXiS91Ee-64" value="Revisi?" style="rhombus;whiteSpace=wrap;html=1;fillColor=rgb(255, 255, 255);strokeColor=rgb(0, 0, 0);fontColor=rgb(0, 0, 0);rounded=1;strokeWidth=2;arcSize=0;" parent="3" vertex="1">
          <mxGeometry x="35.5" y="62.004999999999995" width="80" height="80" as="geometry" />
        </mxCell>
        <mxCell id="3kQOBkl0-LQ7jXiS91Ee-79" value="Memberikan formulir " style="shape=parallelogram;html=1;strokeWidth=2;perimeter=parallelogramPerimeter;whiteSpace=wrap;rounded=1;arcSize=12;size=0.23;" parent="3" vertex="1">
          <mxGeometry x="126.25" y="352" width="153.5" height="60" as="geometry" />
        </mxCell>
        <mxCell id="3kQOBkl0-LQ7jXiS91Ee-85" value="Selesai" style="ellipse;whiteSpace=wrap;html=1;fillColor=rgb(255, 255, 255);strokeColor=rgb(0, 0, 0);fontColor=rgb(0, 0, 0);rounded=1;strokeWidth=2;arcSize=0;" parent="3" vertex="1">
          <mxGeometry x="15.5" y="441.995" width="120" height="60" as="geometry" />
        </mxCell>
        <mxCell id="3kQOBkl0-LQ7jXiS91Ee-83" value="Formulir ditolak" style="whiteSpace=wrap;html=1;fillColor=rgb(255, 255, 255);strokeColor=rgb(0, 0, 0);fontColor=rgb(0, 0, 0);rounded=1;strokeWidth=2;arcSize=0;" parent="3" vertex="1">
          <mxGeometry x="15.5" y="232.005" width="120" height="60" as="geometry" />
        </mxCell>
        <mxCell id="3kQOBkl0-LQ7jXiS91Ee-84" value="" style="edgeStyle=orthogonalEdgeStyle;rounded=0;orthogonalLoop=1;jettySize=auto;html=1;" parent="3" source="3kQOBkl0-LQ7jXiS91Ee-64" target="3kQOBkl0-LQ7jXiS91Ee-83" edge="1">
          <mxGeometry relative="1" as="geometry" />
        </mxCell>
        <mxCell id="3kQOBkl0-LQ7jXiS91Ee-141" value="No" style="edgeLabel;html=1;align=center;verticalAlign=middle;resizable=0;points=[];" parent="3kQOBkl0-LQ7jXiS91Ee-84" vertex="1" connectable="0">
          <mxGeometry x="-0.307" relative="1" as="geometry">
            <mxPoint as="offset" />
          </mxGeometry>
        </mxCell>
        <mxCell id="3kQOBkl0-LQ7jXiS91Ee-86" value="" style="edgeStyle=orthogonalEdgeStyle;rounded=0;orthogonalLoop=1;jettySize=auto;html=1;" parent="3" source="3kQOBkl0-LQ7jXiS91Ee-83" target="3kQOBkl0-LQ7jXiS91Ee-85" edge="1">
          <mxGeometry relative="1" as="geometry" />
        </mxCell>
        <mxCell id="4" value="Cost Control" style="swimlane;whiteSpace=wrap" parent="1" vertex="1">
          <mxGeometry x="700" y="128" width="304.5" height="1392" as="geometry" />
        </mxCell>
        <mxCell id="3kQOBkl0-LQ7jXiS91Ee-95" value="A" style="strokeWidth=2;html=1;shape=mxgraph.flowchart.start_2;whiteSpace=wrap;" parent="4" vertex="1">
          <mxGeometry x="120.5" y="42" width="63.5" height="63" as="geometry" />
        </mxCell>
        <mxCell id="3kQOBkl0-LQ7jXiS91Ee-108" value="menyetujui?" style="rhombus;whiteSpace=wrap;html=1;fillColor=rgb(255, 255, 255);strokeColor=rgb(0, 0, 0);fontColor=rgb(0, 0, 0);rounded=1;strokeWidth=2;arcSize=0;" parent="4" vertex="1">
          <mxGeometry x="188.25" y="331.995" width="80" height="80" as="geometry" />
        </mxCell>
        <mxCell id="3kQOBkl0-LQ7jXiS91Ee-119" style="edgeStyle=orthogonalEdgeStyle;rounded=0;orthogonalLoop=1;jettySize=auto;html=1;exitX=0.5;exitY=1;exitDx=0;exitDy=0;entryX=0.5;entryY=0;entryDx=0;entryDy=0;" parent="4" source="3kQOBkl0-LQ7jXiS91Ee-109" target="3kQOBkl0-LQ7jXiS91Ee-120" edge="1">
          <mxGeometry relative="1" as="geometry">
            <mxPoint x="203.25" y="621.99" as="targetPoint" />
          </mxGeometry>
        </mxCell>
        <mxCell id="3kQOBkl0-LQ7jXiS91Ee-109" value="Menandatangani formulir" style="whiteSpace=wrap;html=1;fillColor=rgb(255, 255, 255);strokeColor=rgb(0, 0, 0);fontColor=rgb(0, 0, 0);rounded=1;strokeWidth=2;arcSize=0;" parent="4" vertex="1">
          <mxGeometry x="168.25" y="501.995" width="120" height="60" as="geometry" />
        </mxCell>
        <mxCell id="3kQOBkl0-LQ7jXiS91Ee-110" value="" style="edgeStyle=orthogonalEdgeStyle;rounded=0;orthogonalLoop=1;jettySize=auto;html=1;" parent="4" source="3kQOBkl0-LQ7jXiS91Ee-108" target="3kQOBkl0-LQ7jXiS91Ee-109" edge="1">
          <mxGeometry relative="1" as="geometry" />
        </mxCell>
        <mxCell id="3kQOBkl0-LQ7jXiS91Ee-111" value="Yes" style="edgeLabel;html=1;align=center;verticalAlign=middle;resizable=0;points=[];" parent="3kQOBkl0-LQ7jXiS91Ee-110" vertex="1" connectable="0">
          <mxGeometry x="-0.2393" relative="1" as="geometry">
            <mxPoint as="offset" />
          </mxGeometry>
        </mxCell>
        <mxCell id="3kQOBkl0-LQ7jXiS91Ee-145" style="edgeStyle=orthogonalEdgeStyle;rounded=0;orthogonalLoop=1;jettySize=auto;html=1;exitX=0;exitY=0.5;exitDx=0;exitDy=0;entryX=0.472;entryY=0;entryDx=0;entryDy=0;entryPerimeter=0;" parent="4" source="3kQOBkl0-LQ7jXiS91Ee-112" target="3kQOBkl0-LQ7jXiS91Ee-143" edge="1">
          <mxGeometry relative="1" as="geometry">
            <Array as="points">
              <mxPoint x="50" y="372" />
            </Array>
          </mxGeometry>
        </mxCell>
        <mxCell id="3kQOBkl0-LQ7jXiS91Ee-146" value="Yes" style="edgeLabel;html=1;align=center;verticalAlign=middle;resizable=0;points=[];" parent="3kQOBkl0-LQ7jXiS91Ee-145" vertex="1" connectable="0">
          <mxGeometry x="-0.2956" y="1" relative="1" as="geometry">
            <mxPoint as="offset" />
          </mxGeometry>
        </mxCell>
        <mxCell id="3kQOBkl0-LQ7jXiS91Ee-112" value="Revisi?" style="rhombus;whiteSpace=wrap;html=1;fillColor=rgb(255, 255, 255);strokeColor=rgb(0, 0, 0);fontColor=rgb(0, 0, 0);rounded=1;strokeWidth=2;arcSize=0;" parent="4" vertex="1">
          <mxGeometry x="60.75" y="331.995" width="80" height="80" as="geometry" />
        </mxCell>
        <mxCell id="3kQOBkl0-LQ7jXiS91Ee-106" style="edgeStyle=orthogonalEdgeStyle;rounded=0;orthogonalLoop=1;jettySize=auto;html=1;exitX=0;exitY=0.5;exitDx=0;exitDy=0;entryX=1.026;entryY=0.503;entryDx=0;entryDy=0;entryPerimeter=0;" parent="4" source="3kQOBkl0-LQ7jXiS91Ee-108" target="3kQOBkl0-LQ7jXiS91Ee-112" edge="1">
          <mxGeometry relative="1" as="geometry" />
        </mxCell>
        <mxCell id="3kQOBkl0-LQ7jXiS91Ee-107" value="No" style="edgeLabel;html=1;align=center;verticalAlign=middle;resizable=0;points=[];" parent="3kQOBkl0-LQ7jXiS91Ee-106" vertex="1" connectable="0">
          <mxGeometry x="-0.6379" relative="1" as="geometry">
            <mxPoint as="offset" />
          </mxGeometry>
        </mxCell>
        <mxCell id="3kQOBkl0-LQ7jXiS91Ee-114" value="Selesai" style="ellipse;whiteSpace=wrap;html=1;fillColor=rgb(255, 255, 255);strokeColor=rgb(0, 0, 0);fontColor=rgb(0, 0, 0);rounded=1;strokeWidth=2;arcSize=0;" parent="4" vertex="1">
          <mxGeometry x="40.75" y="711.985" width="120" height="60" as="geometry" />
        </mxCell>
        <mxCell id="3kQOBkl0-LQ7jXiS91Ee-115" value="" style="edgeStyle=orthogonalEdgeStyle;rounded=0;orthogonalLoop=1;jettySize=auto;html=1;" parent="4" source="3kQOBkl0-LQ7jXiS91Ee-116" target="3kQOBkl0-LQ7jXiS91Ee-114" edge="1">
          <mxGeometry relative="1" as="geometry" />
        </mxCell>
        <mxCell id="3kQOBkl0-LQ7jXiS91Ee-116" value="Formulir ditolak" style="whiteSpace=wrap;html=1;fillColor=rgb(255, 255, 255);strokeColor=rgb(0, 0, 0);fontColor=rgb(0, 0, 0);rounded=1;strokeWidth=2;arcSize=0;" parent="4" vertex="1">
          <mxGeometry x="40.75" y="501.995" width="120" height="60" as="geometry" />
        </mxCell>
        <mxCell id="3kQOBkl0-LQ7jXiS91Ee-117" value="" style="edgeStyle=orthogonalEdgeStyle;rounded=0;orthogonalLoop=1;jettySize=auto;html=1;" parent="4" source="3kQOBkl0-LQ7jXiS91Ee-112" target="3kQOBkl0-LQ7jXiS91Ee-116" edge="1">
          <mxGeometry relative="1" as="geometry" />
        </mxCell>
        <mxCell id="3kQOBkl0-LQ7jXiS91Ee-142" value="No" style="edgeLabel;html=1;align=center;verticalAlign=middle;resizable=0;points=[];" parent="3kQOBkl0-LQ7jXiS91Ee-117" vertex="1" connectable="0">
          <mxGeometry x="-0.275" relative="1" as="geometry">
            <mxPoint as="offset" />
          </mxGeometry>
        </mxCell>
        <mxCell id="3kQOBkl0-LQ7jXiS91Ee-120" value="Mengajukan persetujuan" style="rounded=1;whiteSpace=wrap;html=1;fillColor=rgb(255, 255, 255);strokeColor=rgb(0, 0, 0);fontColor=rgb(0, 0, 0);strokeWidth=2;arcSize=0;" parent="4" vertex="1">
          <mxGeometry x="168.25" y="622" width="120" height="57.25" as="geometry" />
        </mxCell>
        <mxCell id="3kQOBkl0-LQ7jXiS91Ee-129" style="edgeStyle=orthogonalEdgeStyle;rounded=0;orthogonalLoop=1;jettySize=auto;html=1;exitX=0.5;exitY=1;exitDx=0;exitDy=0;entryX=0.5;entryY=0;entryDx=0;entryDy=0;" parent="4" source="3kQOBkl0-LQ7jXiS91Ee-126" target="3kQOBkl0-LQ7jXiS91Ee-128" edge="1">
          <mxGeometry relative="1" as="geometry" />
        </mxCell>
        <mxCell id="3kQOBkl0-LQ7jXiS91Ee-126" value="Menerima formulir" style="shape=parallelogram;html=1;strokeWidth=2;perimeter=parallelogramPerimeter;whiteSpace=wrap;rounded=1;arcSize=12;size=0.23;" parent="4" vertex="1">
          <mxGeometry x="115.75" y="802" width="153.5" height="60" as="geometry" />
        </mxCell>
        <mxCell id="3kQOBkl0-LQ7jXiS91Ee-131" style="edgeStyle=orthogonalEdgeStyle;rounded=0;orthogonalLoop=1;jettySize=auto;html=1;exitX=0.5;exitY=1;exitDx=0;exitDy=0;entryX=0.5;entryY=0;entryDx=0;entryDy=0;entryPerimeter=0;" parent="4" source="3kQOBkl0-LQ7jXiS91Ee-128" target="3kQOBkl0-LQ7jXiS91Ee-130" edge="1">
          <mxGeometry relative="1" as="geometry" />
        </mxCell>
        <mxCell id="3kQOBkl0-LQ7jXiS91Ee-128" value="Mengajukan pembayaran" style="rounded=1;whiteSpace=wrap;html=1;fillColor=rgb(255, 255, 255);strokeColor=rgb(0, 0, 0);fontColor=rgb(0, 0, 0);strokeWidth=2;arcSize=0;" parent="4" vertex="1">
          <mxGeometry x="132.5" y="932" width="120" height="57.25" as="geometry" />
        </mxCell>
        <mxCell id="3kQOBkl0-LQ7jXiS91Ee-130" value="C" style="strokeWidth=2;html=1;shape=mxgraph.flowchart.start_2;whiteSpace=wrap;" parent="4" vertex="1">
          <mxGeometry x="160.75" y="1032" width="63.5" height="63" as="geometry" />
        </mxCell>
        <mxCell id="3kQOBkl0-LQ7jXiS91Ee-143" value="B" style="strokeWidth=2;html=1;shape=mxgraph.flowchart.start_2;whiteSpace=wrap;" parent="4" vertex="1">
          <mxGeometry x="20" y="424" width="63.5" height="63" as="geometry" />
        </mxCell>
        <mxCell id="3kQOBkl0-LQ7jXiS91Ee-100" value="Pengecekan form, bukti, budget" style="whiteSpace=wrap;html=1;fillColor=rgb(255, 255, 255);strokeColor=rgb(0, 0, 0);fontColor=rgb(0, 0, 0);strokeWidth=2;" parent="4" vertex="1">
          <mxGeometry x="92.25" y="182" width="120" height="60" as="geometry" />
        </mxCell>
        <mxCell id="3kQOBkl0-LQ7jXiS91Ee-101" value="" style="edgeStyle=orthogonalEdgeStyle;rounded=0;orthogonalLoop=1;jettySize=auto;html=1;" parent="4" source="3kQOBkl0-LQ7jXiS91Ee-95" target="3kQOBkl0-LQ7jXiS91Ee-100" edge="1">
          <mxGeometry relative="1" as="geometry" />
        </mxCell>
        <mxCell id="3kQOBkl0-LQ7jXiS91Ee-118" style="edgeStyle=orthogonalEdgeStyle;rounded=0;orthogonalLoop=1;jettySize=auto;html=1;entryX=0.5;entryY=0;entryDx=0;entryDy=0;" parent="4" source="3kQOBkl0-LQ7jXiS91Ee-100" target="3kQOBkl0-LQ7jXiS91Ee-108" edge="1">
          <mxGeometry relative="1" as="geometry" />
        </mxCell>
        <mxCell id="3kQOBkl0-LQ7jXiS91Ee-41" value="Head Finance" style="swimlane;whiteSpace=wrap" parent="1" vertex="1">
          <mxGeometry x="1004.5" y="128" width="280" height="1392" as="geometry" />
        </mxCell>
        <mxCell id="3kQOBkl0-LQ7jXiS91Ee-125" style="edgeStyle=orthogonalEdgeStyle;rounded=0;orthogonalLoop=1;jettySize=auto;html=1;exitX=0.5;exitY=1;exitDx=0;exitDy=0;entryX=0.5;entryY=0;entryDx=0;entryDy=0;" parent="3kQOBkl0-LQ7jXiS91Ee-41" source="3kQOBkl0-LQ7jXiS91Ee-121" target="3kQOBkl0-LQ7jXiS91Ee-124" edge="1">
          <mxGeometry relative="1" as="geometry" />
        </mxCell>
        <mxCell id="3kQOBkl0-LQ7jXiS91Ee-121" value="Menandatangani formulir" style="whiteSpace=wrap;html=1;fillColor=rgb(255, 255, 255);strokeColor=rgb(0, 0, 0);fontColor=rgb(0, 0, 0);rounded=1;strokeWidth=2;arcSize=0;" parent="3kQOBkl0-LQ7jXiS91Ee-41" vertex="1">
          <mxGeometry x="80" y="52.004999999999995" width="120" height="60" as="geometry" />
        </mxCell>
        <mxCell id="3kQOBkl0-LQ7jXiS91Ee-124" value="Memberikan formulir " style="shape=parallelogram;html=1;strokeWidth=2;perimeter=parallelogramPerimeter;whiteSpace=wrap;rounded=1;arcSize=12;size=0.23;" parent="3kQOBkl0-LQ7jXiS91Ee-41" vertex="1">
          <mxGeometry x="63.25" y="194" width="153.5" height="60" as="geometry" />
        </mxCell>
        <mxCell id="3kQOBkl0-LQ7jXiS91Ee-42" value="Payment" style="swimlane;whiteSpace=wrap" parent="1" vertex="1">
          <mxGeometry x="1284.5" y="128" width="280" height="1392" as="geometry" />
        </mxCell>
        <mxCell id="3kQOBkl0-LQ7jXiS91Ee-132" value="C" style="strokeWidth=2;html=1;shape=mxgraph.flowchart.start_2;whiteSpace=wrap;" parent="3kQOBkl0-LQ7jXiS91Ee-42" vertex="1">
          <mxGeometry x="108.25" y="49.00999999999999" width="63.5" height="63" as="geometry" />
        </mxCell>
        <mxCell id="3kQOBkl0-LQ7jXiS91Ee-51" value="" style="edgeStyle=orthogonalEdgeStyle;rounded=0;orthogonalLoop=1;jettySize=auto;html=1;" parent="1" source="3kQOBkl0-LQ7jXiS91Ee-48" target="3kQOBkl0-LQ7jXiS91Ee-50" edge="1">
          <mxGeometry relative="1" as="geometry" />
        </mxCell>
        <mxCell id="3kQOBkl0-LQ7jXiS91Ee-48" value="edit formulir" style="whiteSpace=wrap;html=1;fillColor=rgb(255, 255, 255);strokeColor=rgb(0, 0, 0);fontColor=rgb(0, 0, 0);strokeWidth=2;rounded=1;arcSize=12;" parent="1" vertex="1">
          <mxGeometry x="244.5" y="382" width="120" height="38" as="geometry" />
        </mxCell>
        <mxCell id="3kQOBkl0-LQ7jXiS91Ee-49" value="" style="edgeStyle=orthogonalEdgeStyle;rounded=0;orthogonalLoop=1;jettySize=auto;html=1;" parent="1" source="3kQOBkl0-LQ7jXiS91Ee-47" target="3kQOBkl0-LQ7jXiS91Ee-48" edge="1">
          <mxGeometry relative="1" as="geometry" />
        </mxCell>
        <mxCell id="3kQOBkl0-LQ7jXiS91Ee-59" value="" style="edgeStyle=orthogonalEdgeStyle;rounded=0;orthogonalLoop=1;jettySize=auto;html=1;entryX=0.5;entryY=0;entryDx=0;entryDy=0;" parent="1" source="3kQOBkl0-LQ7jXiS91Ee-56" target="3kQOBkl0-LQ7jXiS91Ee-58" edge="1">
          <mxGeometry relative="1" as="geometry">
            <mxPoint x="585" y="190" as="targetPoint" />
            <Array as="points">
              <mxPoint x="390" y="897" />
              <mxPoint x="390" y="170" />
              <mxPoint x="623" y="170" />
            </Array>
          </mxGeometry>
        </mxCell>
        <mxCell id="3kQOBkl0-LQ7jXiS91Ee-66" value="" style="edgeStyle=orthogonalEdgeStyle;rounded=0;orthogonalLoop=1;jettySize=auto;html=1;entryX=1;entryY=0.5;entryDx=0;entryDy=0;" parent="1" source="3kQOBkl0-LQ7jXiS91Ee-64" target="3kQOBkl0-LQ7jXiS91Ee-48" edge="1">
          <mxGeometry relative="1" as="geometry">
            <Array as="points">
              <mxPoint x="400" y="230" />
              <mxPoint x="400" y="401" />
            </Array>
          </mxGeometry>
        </mxCell>
        <mxCell id="3kQOBkl0-LQ7jXiS91Ee-67" value="Yes" style="edgeLabel;html=1;align=center;verticalAlign=middle;resizable=0;points=[];" parent="3kQOBkl0-LQ7jXiS91Ee-66" vertex="1" connectable="0">
          <mxGeometry x="-0.8718" y="-1" relative="1" as="geometry">
            <mxPoint as="offset" />
          </mxGeometry>
        </mxCell>
        <mxCell id="3kQOBkl0-LQ7jXiS91Ee-93" style="edgeStyle=orthogonalEdgeStyle;rounded=0;orthogonalLoop=1;jettySize=auto;html=1;exitX=0.5;exitY=1;exitDx=0;exitDy=0;entryX=1;entryY=0.5;entryDx=0;entryDy=0;" parent="1" source="3kQOBkl0-LQ7jXiS91Ee-79" target="3kQOBkl0-LQ7jXiS91Ee-92" edge="1">
          <mxGeometry relative="1" as="geometry">
            <Array as="points">
              <mxPoint x="623" y="980" />
            </Array>
          </mxGeometry>
        </mxCell>
        <mxCell id="3kQOBkl0-LQ7jXiS91Ee-123" style="edgeStyle=orthogonalEdgeStyle;rounded=0;orthogonalLoop=1;jettySize=auto;html=1;exitX=1;exitY=0.5;exitDx=0;exitDy=0;entryX=0;entryY=0.5;entryDx=0;entryDy=0;" parent="1" source="3kQOBkl0-LQ7jXiS91Ee-120" target="3kQOBkl0-LQ7jXiS91Ee-121" edge="1">
          <mxGeometry relative="1" as="geometry" />
        </mxCell>
        <mxCell id="3kQOBkl0-LQ7jXiS91Ee-127" style="edgeStyle=orthogonalEdgeStyle;rounded=0;orthogonalLoop=1;jettySize=auto;html=1;exitX=0.5;exitY=1;exitDx=0;exitDy=0;entryX=0.606;entryY=0.015;entryDx=0;entryDy=0;entryPerimeter=0;" parent="1" source="3kQOBkl0-LQ7jXiS91Ee-124" target="3kQOBkl0-LQ7jXiS91Ee-126" edge="1">
          <mxGeometry relative="1" as="geometry">
            <Array as="points">
              <mxPoint x="1145" y="860" />
              <mxPoint x="909" y="860" />
            </Array>
          </mxGeometry>
        </mxCell>
        <mxCell id="3kQOBkl0-LQ7jXiS91Ee-136" value="" style="edgeStyle=orthogonalEdgeStyle;rounded=0;orthogonalLoop=1;jettySize=auto;html=1;" parent="1" source="3kQOBkl0-LQ7jXiS91Ee-133" target="3kQOBkl0-LQ7jXiS91Ee-135" edge="1">
          <mxGeometry relative="1" as="geometry" />
        </mxCell>
        <mxCell id="3kQOBkl0-LQ7jXiS91Ee-133" value="Memproses pembayaran" style="whiteSpace=wrap;html=1;fillColor=rgb(255, 255, 255);strokeColor=rgb(0, 0, 0);fontColor=rgb(0, 0, 0);strokeWidth=2;" parent="1" vertex="1">
          <mxGeometry x="1364.5" y="321.51" width="120" height="60" as="geometry" />
        </mxCell>
        <mxCell id="3kQOBkl0-LQ7jXiS91Ee-134" value="" style="edgeStyle=orthogonalEdgeStyle;rounded=0;orthogonalLoop=1;jettySize=auto;html=1;" parent="1" source="3kQOBkl0-LQ7jXiS91Ee-132" target="3kQOBkl0-LQ7jXiS91Ee-133" edge="1">
          <mxGeometry relative="1" as="geometry" />
        </mxCell>
        <mxCell id="3kQOBkl0-LQ7jXiS91Ee-140" style="edgeStyle=orthogonalEdgeStyle;rounded=0;orthogonalLoop=1;jettySize=auto;html=1;exitX=0.5;exitY=1;exitDx=0;exitDy=0;entryX=1;entryY=0.5;entryDx=0;entryDy=0;" parent="1" source="3kQOBkl0-LQ7jXiS91Ee-135" target="3kQOBkl0-LQ7jXiS91Ee-137" edge="1">
          <mxGeometry relative="1" as="geometry">
            <Array as="points">
              <mxPoint x="1425" y="1360" />
            </Array>
          </mxGeometry>
        </mxCell>
        <mxCell id="3kQOBkl0-LQ7jXiS91Ee-135" value="Mengirim pemberitahuan" style="whiteSpace=wrap;html=1;fillColor=rgb(255, 255, 255);strokeColor=rgb(0, 0, 0);fontColor=rgb(0, 0, 0);strokeWidth=2;" parent="1" vertex="1">
          <mxGeometry x="1364.5" y="461.51" width="120" height="60" as="geometry" />
        </mxCell>
        <mxCell id="3kQOBkl0-LQ7jXiS91Ee-148" style="edgeStyle=orthogonalEdgeStyle;rounded=0;orthogonalLoop=1;jettySize=auto;html=1;exitX=0.5;exitY=1;exitDx=0;exitDy=0;exitPerimeter=0;entryX=0;entryY=0.5;entryDx=0;entryDy=0;" parent="1" source="3kQOBkl0-LQ7jXiS91Ee-147" target="3kQOBkl0-LQ7jXiS91Ee-48" edge="1">
          <mxGeometry relative="1" as="geometry" />
        </mxCell>
      </root>
    </mxGraphModel>
  </diagram>
</mxfile>
